<?xml version="1.0" encoding="utf-8"?>
<!-- Generator: Adobe Illustrator 19.2.0, SVG Export Plug-In . SVG Version: 6.00 Build 0)  -->
<svg version="1.1" id="Layer_1" xmlns="http://www.w3.org/2000/svg" xmlns:xlink="http://www.w3.org/1999/xlink" x="0px" y="-0px"
	 width="240px" height="240px" viewBox="0 8 33 38" enable-background="new 0 8 33 38" xml:space="preserve">
<polygon fill="#BCBBBB" points="26.5,42.2 26.5,32.3 29.8,32.3 29.8,45.5 0,45.5 0,32.3 3.3,32.3 3.3,42.2 "/>
<path fill="#F48024" d="M7,31.4l16.2,3.4l0.7-3.2L7.7,28.2L7,31.4z M9.1,23.6l15,7l1.4-3l-15-7L9.1,23.6z M13.3,16.2L26,26.8
	l2.1-2.5L15.4,13.7L13.3,16.2z M21.5,8.4l-2.7,2l9.9,13.3l2.7-2L21.5,8.4z M6.6,38.9h16.6v-3.3H6.6C6.6,35.6,6.6,38.9,6.6,38.9z"/>
</svg>
